<?xml version="1.0" encoding="UTF-8" standalone="no"?>
<svg
   version="1.0"
   width="28pt"
   height="32pt"
   viewBox="0 0 28 32"
   preserveAspectRatio="xMidYMid"
   id="svg8"
   sodipodi:docname="Zandora-Favicon.svg"
   inkscape:version="1.2.1 (9c6d41e410, 2022-07-14)"
   xmlns:inkscape="http://www.inkscape.org/namespaces/inkscape"
   xmlns:sodipodi="http://sodipodi.sourceforge.net/DTD/sodipodi-0.dtd"
   xmlns="http://www.w3.org/2000/svg"
   xmlns:svg="http://www.w3.org/2000/svg">
  <defs
     id="defs12" />
  <sodipodi:namedview
     id="namedview10"
     pagecolor="#505050"
     bordercolor="#eeeeee"
     borderopacity="1"
     inkscape:showpageshadow="0"
     inkscape:pageopacity="0"
     inkscape:pagecheckerboard="0"
     inkscape:deskcolor="#505050"
     inkscape:document-units="pt"
     showgrid="false"
     inkscape:zoom="13.729185"
     inkscape:cx="19.010596"
     inkscape:cy="21.778423"
     inkscape:window-width="1920"
     inkscape:window-height="974"
     inkscape:window-x="1909"
     inkscape:window-y="-11"
     inkscape:window-maximized="1"
     inkscape:current-layer="g6" />
  <g
     transform="matrix(0.1,0,0,-0.1,0,500)"
     fill="#000000"
     stroke="none"
     id="g6">
    <g
       id="g7573"
       transform="matrix(0.06655697,0,0,0.06210895,-28.240421,4691.1374)">
      <path
         d="m 2975,4204 c -142,-34 -187,-61 -333,-199 -67,-63 -125,-115 -129,-115 -16,1 -38,26 -55,61 -9,20 -44,66 -78,102 -62,67 -141,115 -225,137 -59,15 -164,12 -225,-6 -109,-32 -148,-62 -384,-294 -232,-229 -651,-646 -763,-761 -34,-35 -87,-89 -118,-119 -31,-30 -75,-85 -96,-121 -34,-56 -42,-81 -51,-155 l -11,-89 34,-78 c 54,-124 90,-165 193,-216 70,-35 103,-45 156,-49 82,-6 187,24 252,70 24,17 221,208 438,424 1016,1009 1252,1239 1285,1256 56,28 158,41 229,29 110,-19 185,-76 254,-191 24,-41 26,-54 26,-145 -1,-112 -12,-147 -102,-330 -27,-55 -62,-129 -77,-165 -15,-36 -40,-92 -56,-125 -16,-33 -39,-85 -53,-115 -30,-68 -111,-248 -142,-315 -12,-27 -35,-77 -49,-110 -30,-66 -109,-239 -161,-353 -19,-41 -34,-75 -34,-78 0,-2 -18,-43 -41,-91 -22,-49 -59,-128 -81,-178 -23,-49 -68,-146 -100,-214 -48,-100 -58,-132 -56,-165 3,-41 3,-41 43,-41 44,0 39,-6 106,140 23,50 54,117 69,150 16,33 54,117 85,185 31,69 70,152 85,185 16,33 48,103 71,155 23,52 56,127 74,165 18,39 50,106 70,150 21,44 62,132 92,195 61,129 97,206 123,265 10,22 36,78 58,125 22,47 58,126 80,175 22,50 52,117 67,150 133,288 13,581 -277,679 -46,16 -160,28 -193,20 z m -823,-128 c 81,-24 153,-80 192,-149 19,-35 38,-75 41,-90 18,-71 22,-67 -491,-578 -267,-266 -553,-553 -637,-637 -180,-181 -236,-216 -347,-216 -154,0 -277,120 -288,281 -7,106 19,158 143,281 89,90 110,111 121,123 174,181 934,922 969,945 81,51 205,68 297,40 z"
         id="path2"
         style="fill:#0684cf;fill-opacity:1" />
      <path
         d="m 1978,2723 c -9,-10 -26,-40 -38,-68 -24,-53 -67,-147 -105,-230 -13,-27 -37,-84 -55,-125 -43,-103 -69,-159 -161,-358 -16,-34 -29,-65 -29,-69 0,-4 -13,-34 -29,-68 -83,-174 -111,-235 -131,-290 -13,-33 -28,-66 -33,-73 -6,-8 -11,-83 -11,-175 l -1,-162 37,-83 c 44,-99 107,-200 129,-207 9,-3 21,-15 28,-28 18,-34 158,-123 231,-148 36,-12 76,-27 89,-33 32,-15 281,-15 312,0 13,7 55,24 93,40 38,15 89,43 114,62 57,43 108,72 129,72 9,0 37,-17 62,-38 50,-42 135,-88 221,-120 183,-69 420,-36 585,82 28,20 283,268 568,552 477,475 521,522 550,583 24,51 32,83 35,142 4,83 -8,132 -55,220 -36,66 -72,101 -158,152 l -70,42 h -125 c -120,0 -127,-1 -180,-30 C 3915,2329 3815,2233 2939,1353 2726,1140 2517,931 2474,890 2287,711 2144,672 1875,728 c -49,10 -106,37 -133,62 -12,11 -25,20 -29,20 -21,0 -143,140 -170,195 -49,99 -56,140 -50,287 4,107 8,141 25,173 11,22 28,58 37,80 10,22 30,68 46,102 16,34 29,64 29,67 0,3 17,43 39,88 21,46 57,123 80,171 22,49 41,95 41,103 0,8 5,14 10,14 6,0 10,7 10,16 0,13 32,86 101,229 10,22 19,46 19,53 0,6 4,12 8,12 10,0 32,45 32,66 0,8 15,45 34,83 66,135 72,191 17,191 -15,0 -35,-8 -43,-17 z m 2231,-434 c 76,-12 114,-30 153,-73 71,-76 97,-159 83,-270 -9,-68 -36,-105 -185,-253 -58,-57 -278,-276 -490,-487 -433,-431 -458,-451 -617,-486 -49,-11 -108,-20 -133,-20 -64,0 -225,45 -274,78 -22,15 -53,33 -68,41 -31,16 -43,42 -34,74 6,24 21,39 693,710 252,251 463,462 468,468 6,5 49,48 98,93 85,82 131,112 192,127 42,10 43,10 114,-2 z"
         id="path4"
         inkscape:label="path4"
         style="mix-blend-mode:darken;fill:#20bcf7;fill-opacity:1" />
    </g>
  </g>
</svg>
